<svg id="Capa_1" data-name="Capa 1" xmlns="http://www.w3.org/2000/svg" viewBox="0 0 278.72 150"><title>logo</title><path id="_Trazado_" data-name="&lt;Trazado&gt;" d="M132.68,69.23h20.07c5.24,0,9.5-3.36,9.5-7.5s-4.26-7.5-9.5-7.5H132.68c-5.25,0-9.51,3.35-9.51,7.5S127.43,69.23,132.68,69.23Z" transform="translate(-14.1 -32.51)" style="fill:#ccc"/><path id="_Trazado_2" data-name="&lt;Trazado&gt;" d="M287,73.6h-9.22V96.73H287a5.78,5.78,0,0,0,5.78-5.79V79.38A5.78,5.78,0,0,0,287,73.6Z" transform="translate(-14.1 -32.51)" style="fill:#666"/><path id="_Trazado_3" data-name="&lt;Trazado&gt;" d="M287,107.51h-9.22v23.12H287a5.78,5.78,0,0,0,5.78-5.78V113.29A5.78,5.78,0,0,0,287,107.51Z" transform="translate(-14.1 -32.51)" style="fill:#666"/><path id="_Trazado_4" data-name="&lt;Trazado&gt;" d="M287,141.41h-9.22v23.13H287a5.78,5.78,0,0,0,5.78-5.78V147.2A5.78,5.78,0,0,0,287,141.41Z" transform="translate(-14.1 -32.51)" style="fill:#666"/><path id="_Trazado_compuesto_" data-name="&lt;Trazado compuesto&gt;" d="M24.18,182.51H131.32c5.56,0,10.08-4,10.08-9V165H129.67c-7.77,0-14.07-5.6-14.07-12.5s6.3-12.5,14.07-12.5H141.4V120H129.67c-7.77,0-14.07-5.6-14.07-12.5S121.9,95,129.67,95H141.4V75H129.67c-7.77,0-14.07-5.6-14.07-12.5S121.9,50,129.67,50H141.4V41.47c0-4.95-4.52-9-10.08-9H24.18c-5.57,0-10.08,4-10.08,9V173.55C14.1,178.5,18.61,182.51,24.18,182.51Zm28.64-91.4c4.84,0,8.35,2.2,8.86,7h.21a15.54,15.54,0,0,1,13.3-7c6.7,0,11.54,4.4,11.54,11.91,0,11.17-9.28,21.34-24.12,21.34a38,38,0,0,1-7.45-.78,4.85,4.85,0,0,1-4.1-5.44l2.38-13c1-5.4.31-7.87-2.58-8-4.43-.1-10,4.94-10,15.47,0,11.91,8.65,21.16,24.63,21.16,15.76,0,29.58-11,29.58-28.48,0-15.3-11-24-26.39-24a40.3,40.3,0,0,0-12,1.78A3.42,3.42,0,0,1,54.3,83a2.78,2.78,0,0,1-1.56-1.63,2.69,2.69,0,0,1,1.88-3.41,48.39,48.39,0,0,1,16.14-2.3c17.1,0,32.15,10.9,32.15,28.85,0,18.69-15.25,34.9-38.55,34.9-18.13,0-31.12-11.09-31.12-26.47C33.24,99.54,41.69,91.11,52.82,91.11Z" transform="translate(-14.1 -32.51)" style="fill:#999"/><path d="M106,157c0,6.63-6.35,12-14.19,12H40.94C33.1,169,27,163.63,27,157V58c0-6.63,6.1-12,13.94-12H91.81C99.65,46,106,51.37,106,58Z" transform="translate(-14.1 -32.51)" style="fill:#ccc"/><path id="_Trazado_5" data-name="&lt;Trazado&gt;" d="M132.68,115.23h20.07c5.24,0,9.5-3.36,9.5-7.5s-4.26-7.5-9.5-7.5H132.68c-5.25,0-9.51,3.35-9.51,7.5S127.43,115.23,132.68,115.23Z" transform="translate(-14.1 -32.51)" style="fill:#ccc"/><path id="_Trazado_6" data-name="&lt;Trazado&gt;" d="M132.68,160.48h20.07c5.24,0,9.5-3.36,9.5-7.5s-4.26-7.5-9.5-7.5H132.68c-5.25,0-9.51,3.35-9.51,7.5S127.43,160.48,132.68,160.48Z" transform="translate(-14.1 -32.51)" style="fill:#ccc"/><path id="_Trazado_compuesto_2" data-name="&lt;Trazado compuesto&gt;" d="M264.32,32.51H157.18c-5.57,0-10.08,4-10.08,9V50h11.73c7.77,0,14.06,5.59,14.06,12.5S166.6,75,158.83,75H147.1V95h11.73c7.77,0,14.06,5.59,14.06,12.5S166.6,120,158.83,120H147.1v20h11.73c7.77,0,14.06,5.59,14.06,12.5S166.6,165,158.83,165H147.1v8.54c0,4.95,4.51,9,10.08,9H264.32c5.56,0,10.08-4,10.08-9V41.47C274.39,36.52,269.88,32.51,264.32,32.51ZM235.68,123.9c-4.84,0-8.35-2.19-8.87-7.05h-.2a15.54,15.54,0,0,1-13.3,7.05c-6.7,0-11.54-4.39-11.54-11.9,0-11.17,9.28-21.35,24.12-21.35a37.28,37.28,0,0,1,7.45.79,4.83,4.83,0,0,1,4.09,5.43l-2.37,13c-1,5.41-.31,7.88,2.58,8,4.43.09,10-5,10-15.48,0-11.91-8.66-21.16-24.63-21.16-15.77,0-29.58,11-29.58,28.49,0,15.29,11,24,26.38,24a40,40,0,0,0,12-1.79,3.42,3.42,0,0,1,2.4.12,2.84,2.84,0,0,1,1.56,1.63,2.71,2.71,0,0,1-1.88,3.42,48.44,48.44,0,0,1-16.14,2.29c-17.11,0-32.16-10.89-32.16-28.85,0-18.68,15.26-34.89,38.55-34.89,18.14,0,31.13,11.08,31.13,26.47C255.26,115.48,246.8,123.9,235.68,123.9Z" transform="translate(-14.1 -32.51)" style="fill:#999"/><path d="M182,57c0-6.62,6.85-12,14.69-12h50.86C255.39,45,261,50.39,261,57v99c0,6.63-5.61,12-13.45,12H196.69c-7.84,0-14.69-5.36-14.69-12Z" transform="translate(-14.1 -32.51)" style="fill:#ccc"/><path d="M77.75,59.5c0,3-1.75,5.5-3.91,5.5H36.91C34.75,65,33,62.54,33,59.5h0c0-3,1.75-5.5,3.91-5.5H73.84c2.16,0,3.91,2.46,3.91,5.5Z" transform="translate(-14.1 -32.51)" style="fill:#e04649"/><path d="M102,80.5c0,3-2.15,5.5-4.8,5.5H51.87c-2.65,0-4.8-2.46-4.8-5.5h0c0-3,2.15-5.5,4.8-5.5H97.2c2.65,0,4.8,2.46,4.8,5.5Z" transform="translate(-14.1 -32.51)" style="fill:#d76b7d"/><path d="M74.53,99.5c0,3-1.62,5.5-3.62,5.5H36.63c-2,0-3.63-2.46-3.63-5.5h0c0-3,1.62-5.5,3.63-5.5H70.91c2,0,3.62,2.46,3.62,5.5Z" transform="translate(-14.1 -32.51)" style="fill:#ffec55"/><path d="M74.53,118.5c0,3-1.62,5.5-3.62,5.5H36.63c-2,0-3.63-2.46-3.63-5.5h0c0-3,1.62-5.5,3.63-5.5H70.91c2,0,3.62,2.46,3.62,5.5Z" transform="translate(-14.1 -32.51)" style="fill:#f15a24"/><path d="M101.53,136.5c0,3-1.62,5.5-3.62,5.5H63.63c-2,0-3.63-2.46-3.63-5.5h0c0-3,1.62-5.5,3.63-5.5H97.91c2,0,3.62,2.46,3.62,5.5Z" transform="translate(-14.1 -32.51)" style="fill:#00a356"/><path d="M101.53,154.5c0,3-1.62,5.5-3.62,5.5H63.63c-2,0-3.63-2.46-3.63-5.5h0c0-3,1.62-5.5,3.63-5.5H97.91c2,0,3.62,2.46,3.62,5.5Z" transform="translate(-14.1 -32.51)" style="fill:#ed1e79"/></svg>